<svg width="42" height="58" viewBox="0 0 42 58" fill="none" xmlns="http://www.w3.org/2000/svg">
<path d="M5.47 6.25L2.69 14.23L1 47.93L5.47 52.23M5.47 6.25L7.89 14.36L10.55 47.29L5.47 52.23M5.47 6.25V1H35.94L35.92 6.25M5.47 6.25H35.92M5.47 52.23H35.92M5.47 52.23V57H36.08L35.92 52.23M35.92 6.25L38.34 14.36L41 47.29L35.92 52.23" stroke="#161D0A" stroke-width="2" stroke-linecap="round" stroke-linejoin="round"/>
<path d="M12.74 16.6699H33.32L36.63 43.7999H14.88L12.74 16.6699Z" fill="#161D0A" stroke="#161D0A" stroke-width="2" stroke-linecap="round" stroke-linejoin="round"/>
<path d="M19.08 40.2799C19.08 40.2799 20.32 33.9999 24.19 30.9099" stroke="#A6DF65" stroke-width="2" stroke-linecap="round" stroke-linejoin="round"/>
<path d="M20.26 36.5999C20.26 36.5999 17.74 33.1 19.33 29.4C19.9471 28.0571 21.006 26.9665 22.33 26.3099C25.1811 24.8067 27.6877 22.7258 29.69 20.2C29.69 20.2 33 28.94 27 34.59C27 34.59 25.22 36.6099 20.26 36.5999Z" stroke="#A6DF65" stroke-width="2" stroke-linecap="round" stroke-linejoin="round"/>
</svg>
