<svg width="79" height="51" viewBox="0 0 79 51" fill="none" xmlns="http://www.w3.org/2000/svg">
<path d="M29.804 9.19883C29.804 9.19883 21.6358 22.9558 23.7853 27.6848C25.9348 32.4138 26.3647 35.853 26.3647 35.853L26.7947 44.4512L37.1124 43.5914L37.9722 35.853L32.5259 22.5259C30.3763 16.5072 29.804 11.9502 29.804 9.19883Z" fill="#161D0A"/>
<path d="M39.262 23.3857C40.4084 17.0804 40.5517 8.33901 42.7012 3.61005C44.4208 16.9371 50.0609 21.1646 48.7199 33.2736V44.0213L39.262 43.1614V23.3857Z" fill="#161D0A"/>
<path d="M29.804 9.19883C29.804 9.19883 21.6358 22.9558 23.7853 27.6848C25.9348 32.4138 26.3647 35.853 26.3647 35.853L26.7947 44.4512L37.1124 43.5914L37.9722 35.853L32.5259 22.5259C30.3763 16.5072 29.804 11.9502 29.804 9.19883Z" stroke="#161D0A" stroke-width="2"/>
<path d="M39.262 23.3857C40.4084 17.0804 40.5517 8.33901 42.7012 3.61005C44.4208 16.9371 50.0609 21.1646 48.7199 33.2736V44.0213L39.262 43.1614V23.3857Z" stroke="#161D0A" stroke-width="2"/>
<path d="M1.00027 49.61C1.00027 49.61 16.6092 44.5815 40.1218 44.5815C63.6343 44.5815 77.5236 49.61 77.5236 49.61" stroke="#161D0A" stroke-width="2" stroke-linecap="round" stroke-linejoin="round"/>
<path d="M17.7666 13.9278C14.9894 25.3776 24.2152 45.311 24.2152 45.311C26.4253 45.1633 30.2339 44.4512 30.2339 44.4512C29.804 34.1334 19.9162 18.6568 17.7666 13.9278Z" fill="#A6DF65"/>
<path d="M35.8227 16.5072C34.9629 23.3857 33.006 35.6978 34.3078 43.4122H39.9492C41.4115 32.4138 39.4389 22.6991 35.8227 16.5072Z" fill="#A6DF65"/>
<path d="M51.7292 14.7876C50.0609 26.825 49.93 34.2767 45.5905 43.4122L52.9676 44.0213C55.7449 36.4692 56.9366 22.7051 51.7292 14.7876Z" fill="#A6DF65"/>
<path d="M17.7666 13.9278C14.9894 25.3776 24.2152 45.311 24.2152 45.311C26.4253 45.1633 30.2339 44.4512 30.2339 44.4512C29.804 34.1334 19.9162 18.6568 17.7666 13.9278Z" stroke="#161D0A" stroke-width="2"/>
<path d="M35.8227 16.5072C34.9629 23.3857 33.006 35.6978 34.3078 43.4122H39.9492C41.4115 32.4138 39.4389 22.6991 35.8227 16.5072Z" stroke="#161D0A" stroke-width="2"/>
<path d="M51.7292 14.7876C50.0609 26.825 49.93 34.2767 45.5905 43.4122L52.9676 44.0213C55.7449 36.4692 56.9366 22.7051 51.7292 14.7876Z" stroke="#161D0A" stroke-width="2"/>
</svg>
