<svg width="41" height="48" viewBox="0 0 41 48" fill="none" xmlns="http://www.w3.org/2000/svg">
<path d="M36.4237 18.3084C43.5006 28.2743 38.0867 39.6892 35.4683 44.1421C35.0844 44.7648 34.5684 45.2963 33.9574 45.6993C33.3459 46.102 32.6541 46.3667 31.9298 46.4743C26.7989 47.3578 14.0251 48.3475 7.16043 38.3814C0.40196 28.9811 0.685038 12.442 1.28658 4.56111C1.31028 3.97397 1.47327 3.40085 1.76215 2.8889C2.05103 2.37698 2.45749 1.94088 2.9481 1.61652C3.43871 1.29216 3.99941 1.08881 4.58411 1.0232C5.16881 0.957594 5.76076 1.03161 6.3112 1.23915C13.9189 3.43025 29.7712 8.90794 36.4237 18.3084Z" fill="#161D0A" stroke="#161D0A" stroke-width="2" stroke-linecap="round" stroke-linejoin="round"/>
<path d="M12.5743 15.0217C20.6793 24.5609 27.7927 34.8978 33.8052 45.8734L12.5743 15.0217Z" fill="#161D0A"/>
<path d="M12.5743 15.0217C20.6793 24.5609 27.7927 34.8978 33.8052 45.8734" stroke="#A6DF65" stroke-width="2" stroke-linecap="round" stroke-linejoin="round"/>
</svg>
