<svg width="1440" height="218" viewBox="0 0 1440 218" fill="none" xmlns="http://www.w3.org/2000/svg">
<path d="M25.5 31.8198L-0.5 134.5V178.5L37.5 202.5L753 167.5C751.833 155.5 713 68.5 713 68.5C713 68.5 714.5 114.5 719 149.32C715 133.82 682.049 72.0866 686 86.5C687.371 91.5 683.333 115 672 145.5C667.833 135.667 653.9 113.72 653.5 53.3198C653 -22.1802 639.5 117.82 639.5 53.3198C639.5 53.3198 622.333 97.3198 610 153.32C606.833 138.153 583.3 91.5 582.5 57.5C581.5 15 561 158.32 560.5 172.82C560 187.32 553 149.32 549 78.3198C545.8 21.5198 532 101.986 525.5 149.32C519.5 135.486 507 96.9198 505 53.3198C502.5 -1.18019 492 140.32 492 78.3198C491.5 -5.68019 476.5 162.32 476.5 153.32C476.5 144.32 475.5 115.82 481 53.3198C486.5 -9.18019 460 149.32 460 153.32C460 157.32 453.5 137.82 438 31.8198C422.5 -74.1802 430 115.82 429 149.32C428 182.82 421 162.32 412 53.3198C403 -55.6802 399 141.32 397.5 149.32C396 157.32 390 107.82 382.5 78.3198C375 48.8198 372 162.32 372 158.32C372 154.32 371 125.82 372 78.3198C373 30.8198 352.5 158.32 351.5 149.32C350.5 140.32 345 107.82 339.5 107.82C334 107.82 328 158.32 313.5 102.82C299 47.3198 307.5 149.32 303.5 158.32C299.5 167.32 250.181 97.0889 247.5 89.8198C236.5 60 238 131 238 131C238 131 232.5 143.82 235 89.8198C237 46.6198 214.5 111.486 203 149.32C198.667 140.32 187.7 110.92 178.5 65.3198C167 8.31981 163 162.32 161 172.82C159 183.32 154.5 115.82 154.5 102.82C154.5 89.8198 132.5 158.32 130 133.82C133.5 97.8198 133 58.8198 134 48.3198C135 37.8198 108.5 185.32 93 162.32C77.5 139.32 81.5 53.3198 66 115.82C53.6 165.82 33.8333 158.986 25.5 149.32C37.9 119.72 30.6667 58.6531 25.5 31.8198Z" fill="#A6DF65"/>
<path d="M711 159.445L757.971 35.1547C763.681 64.8003 771.675 132.267 757.971 164.969C767.181 175.649 789.027 183.199 802.731 127.958C819.862 58.908 815.441 153.921 832.571 179.332C849.702 204.742 878.99 41.7835 877.884 53.384C876.779 64.9844 877.332 108.072 873.464 147.845C876.227 174.913 900.541 99.2334 900.541 113.596C900.541 127.958 905.514 202.533 907.725 190.932C909.935 179.332 914.356 9.19177 927.066 72.1657C937.233 122.545 949.354 155.026 954.143 164.969C966.853 123.171 982.71 59.7724 980.5 107.5C977.737 167.159 986.746 170.493 991.167 174.913C995.588 179.332 1011.06 90.9474 1028.19 113.596C1045.32 136.244 1060.79 184.856 1065.21 174.913C1069.64 164.969 1060.24 52.2792 1076.27 113.596C1092.29 174.913 1098.92 119.12 1105 119.12C1111.08 119.12 1117.16 155.026 1118.26 164.969C1119.37 174.913 1142.03 34.0499 1140.92 86.5281C1139.82 139.006 1140.92 170.493 1140.92 174.913C1140.92 179.332 1144.24 53.9364 1152.53 86.5281C1160.81 119.12 1167.45 173.808 1169.1 164.969C1170.76 156.131 1175.18 -61.5158 1185.13 58.908C1195.08 179.332 1202.81 201.98 1203.92 164.969C1205.02 127.958 1196.73 -81.9547 1213.86 35.1547C1230.99 152.264 1238.18 173.808 1238.18 169.389C1238.18 164.969 1267.47 -10.1423 1261.39 58.908C1255.31 127.958 1256.41 159.445 1256.41 169.389C1256.41 179.332 1272.99 -6.27551 1273.54 86.5281C1273.54 155.026 1285.15 -1.30388 1287.91 58.908C1290.12 107.078 1303.94 149.686 1310.57 164.969C1317.75 112.675 1323.46 23.7752 1327 86.5281C1330.02 140.038 1339.01 176.582 1344.6 189.321L1349.45 189.078C1353.05 165.968 1403.1 28.5982 1403.96 65C1404.84 102.563 1400.46 152.632 1403.96 169.389C1417.59 107.519 1444.08 2.342 1440.98 76.5849V147.515L1441.43 169.389C1441.43 169.389 1439.69 171.242 1440.98 184.5L1349.45 189.078C1349.33 189.816 1349.27 190.437 1349.25 190.932C1349.07 196.024 1347.21 195.256 1344.6 189.321L771.233 218L736.419 203.085L711 159.445Z" fill="#A6DF65"/>
<path d="M858 158.445L818.5 61C812.971 90.6456 799.25 131.267 812.519 163.969C803.602 174.649 799.678 79.9997 799.678 79.9997C799.678 79.9997 756.873 152.921 740.286 178.331C723.699 203.742 695.34 40.7832 696.41 52.3837C697.481 63.9841 696.945 107.072 700.691 146.844C698.016 173.912 661 55.1375 661 69.5C661 83.8625 659.14 179.989 657 168.388C654.86 156.788 586.722 -38.5 609.435 106C597.988 81.6767 586.991 68.4383 588.327 98.2331C591.003 157.893 591.003 169.493 586.722 173.912C582.442 178.331 572.587 83.3515 556 106C539.413 128.649 543.781 183.855 539.5 173.912C535.219 163.969 530.54 36.9164 515.023 98.2331C499.507 159.55 482.384 118.12 476.499 118.12C470.613 118.12 477.569 149.556 476.499 159.5C475.429 169.443 445.813 33.0496 446.883 85.5278C447.954 138.006 446.883 169.493 446.883 173.912C446.883 178.331 428.526 52.9361 420.5 85.5278C412.474 118.12 422.105 168.338 420.5 159.5C418.895 150.661 380.722 30 380.722 30C380.722 30 398.048 196.691 380.722 163.969C358.5 122 369.587 -42.6092 353 74.5001C347.99 109.874 345.509 132.847 344.486 147.562C337.32 102.197 320.402 3.07823 325.075 57.9077C330.961 126.958 329.891 158.445 329.891 168.388C329.891 178.331 313.839 -7.27583 313.304 85.5278C313.304 154.026 302.068 -2.30421 299.392 57.9077C297.252 106.077 291.5 128 291.5 128C284.544 75.7055 270 23.4156 270 79.9997C270 98.9375 246.647 167.385 238.933 179.03L236.5 178.866C235.965 162.846 193.07 22.5458 192 69.5C191.144 107.063 210 159.5 196.5 163.969C183.302 102.1 175.5 163.969 175.5 163.969L148.5 34.1544C148.5 34.1544 148.5 118.12 126 159.5C113.872 125.803 98.5 79.9997 98.5 79.9997C98.5 79.9997 70.9195 146.844 66.639 163.969C57.7213 120.145 49 75.5846 49 75.5846C49 75.5846 17.7485 150.711 16.5 163.969L236.5 178.866C236.585 181.402 237.482 181.221 238.933 179.03L799.678 217L833.387 202.085L858 158.445Z" fill="#A6DF65"/>
<path d="M1439.5 174.913L1439.5 160.5L1439.5 119.12L1439.5 96L1439.5 86.5282C1439.5 86.5282 1425.43 23.5543 1426.5 35.1547C1427.57 46.7552 1375.5 174.913 1375.5 174.913L1371.5 51L1344.5 150C1344.5 150 1356.81 4.52613 1344.5 67.5C1334.65 117.879 1315.64 135.557 1311 145.5C1311 145.5 1290.86 44.7724 1293 92.5C1295.68 152.159 1282 170.493 1277.72 174.913C1273.44 179.332 1258.46 90.9474 1241.87 113.596C1225.29 136.244 1210.3 184.856 1206.02 174.913C1201.74 164.969 1210.84 52.2792 1195.32 113.596C1179.81 174.913 1173.38 119.12 1167.5 119.12C1161.61 119.12 1155.73 155.026 1154.66 164.969C1153.59 174.913 1131.65 34.0499 1132.72 86.5282C1133.79 139.006 1132.72 170.493 1132.72 174.913C1132.72 179.332 1129.51 53.9364 1121.48 86.5282C1113.46 119.12 1107.04 173.808 1105.43 164.969C1103.83 156.131 1099.55 -61.5157 1089.91 58.908C1080.28 179.332 1072.79 201.98 1071.72 164.969C1070.65 127.958 1028.5 14 1028.5 14C1028.5 14 1043.98 125.374 1047.7 149.163C1042.23 123.365 1010.7 -4.19948 1016.08 58.908C1021.96 127.958 1020.89 159.445 1020.89 169.389C1020.89 179.332 1004.84 -6.27545 1004.3 86.5282C1004.3 155.026 993.068 -1.30385 990.392 58.908C988.252 107.078 974.875 149.686 968.455 164.969C961.499 112.675 946.731 23.7753 943.306 86.5282C940.295 141.711 935.695 178.85 933.045 190.445L930.966 190.334C929.557 171.533 890.323 25.7454 889.265 72.1657C888.409 109.729 878.389 133.244 875 150C861.802 88.1309 865.5 123.5 865.5 123.5L839 25C839 25 822.025 164.049 817.566 174.913C805.438 141.216 776.28 51.5908 772 67.5C767.719 83.4092 761.919 147.845 757.639 164.969C748.721 121.145 730.672 44.1037 729.816 86.5282C728.959 128.953 726.248 166.074 725 179.332L930.966 190.334C930.983 190.551 930.994 190.75 931 190.932C931.158 195.682 931.929 195.333 933.045 190.445L1439.5 217.5V193L1439.5 174.913Z" fill="#A6DF65"/>
</svg>
