<svg width="1440" height="218" viewBox="0 0 1440 218" fill="none" xmlns="http://www.w3.org/2000/svg">
<path d="M1415 31.8198L1441 134.5V178.5L1403 202.5L687.463 167.5C688.63 155.5 727.465 68.5 727.465 68.5C727.465 68.5 725.965 114.5 721.465 149.32C725.465 133.82 758.418 72.0866 754.466 86.5C753.096 91.5 757.133 115 768.467 145.5C772.634 135.667 786.568 113.72 786.968 53.3198C787.468 -22.1802 800.969 117.82 800.969 53.3198C800.969 53.3198 818.136 97.3198 830.47 153.32C833.637 138.153 857.171 91.5 857.971 57.5C858.972 15 879.473 158.32 879.973 172.82C880.473 187.32 887.473 149.32 891.473 78.3198C894.673 21.5198 908.474 101.986 914.974 149.32C920.975 135.486 933.475 96.9198 935.475 53.3198C937.975 -1.18019 948.476 140.32 948.476 78.3198C948.976 -5.68019 963.977 162.32 963.977 153.32C963.977 144.32 964.977 115.82 959.476 53.3198C953.976 -9.18019 980.477 149.32 980.477 153.32C980.477 157.32 986.978 137.82 1002.48 31.8198C1017.98 -74.1802 1010.48 115.82 1011.48 149.32C1012.48 182.82 1019.48 162.32 1028.48 53.3198C1037.48 -55.6802 1041.48 141.32 1042.98 149.32C1044.48 157.32 1050.48 107.82 1057.98 78.3198C1065.48 48.8198 1068.48 162.32 1068.48 158.32C1068.48 154.32 1069.48 125.82 1068.48 78.3198C1067.48 30.8198 1087.98 158.32 1088.98 149.32C1089.98 140.32 1095.48 107.82 1100.98 107.82C1106.48 107.82 1112.48 158.32 1126.98 102.82C1141.49 47.3198 1132.98 149.32 1136.99 158.32C1140.99 167.32 1190.31 97.0889 1192.99 89.8198C1203.99 60 1202.49 131 1202.49 131C1202.49 131 1207.99 143.82 1205.49 89.8198C1203.49 46.6198 1225.99 111.486 1237.49 149.32C1241.82 140.32 1252.79 110.92 1261.99 65.3198C1273.49 8.31981 1277.49 162.32 1279.49 172.82C1281.49 183.32 1285.99 115.82 1285.99 102.82C1285.99 89.8198 1307.99 158.32 1310.49 133.82C1306.99 97.8198 1307.49 58.8198 1306.49 48.3198C1305.49 37.8198 1331.99 185.32 1347.5 162.32C1363 139.32 1359 53.3198 1374.5 115.82C1386.9 165.82 1406.66 158.986 1415 149.32C1402.6 119.72 1409.83 58.6531 1415 31.8198Z" fill="#161D0A"/>
<path d="M729.465 159.445L682.492 35.1547C676.782 64.8003 668.787 132.267 682.492 164.969C673.282 175.649 651.435 183.199 637.73 127.958C620.598 58.908 625.019 153.921 607.888 179.332C590.756 204.742 561.467 41.7835 562.573 53.384C563.678 64.9844 563.125 108.072 566.994 147.845C564.23 174.913 539.915 99.2334 539.915 113.596C539.915 127.958 534.941 202.533 532.731 190.932C530.52 179.332 526.099 9.19177 513.389 72.1657C503.221 122.545 491.1 155.026 486.31 164.969C473.6 123.171 457.742 59.7724 459.952 107.5C462.715 167.159 453.706 170.493 449.285 174.913C444.864 179.332 429.39 90.9474 412.259 113.596C395.127 136.244 379.654 184.856 375.233 174.913C370.812 164.969 380.207 52.2792 364.18 113.596C348.154 174.913 341.523 119.12 335.444 119.12C329.365 119.12 323.286 155.026 322.181 164.969C321.076 174.913 298.418 34.0499 299.523 86.5281C300.629 139.006 299.523 170.493 299.523 174.913C299.523 179.332 296.208 53.9364 287.918 86.5281C279.629 119.12 272.997 173.808 271.34 164.969C269.682 156.131 265.261 -61.5158 255.313 58.908C245.366 179.332 237.629 201.98 236.524 164.969C235.419 127.958 243.708 -81.9547 226.577 35.1547C209.446 152.264 202.261 173.808 202.261 169.389C202.261 164.969 172.972 -10.1423 179.051 58.908C185.13 127.958 184.025 159.445 184.025 169.389C184.025 179.332 167.446 -6.27551 166.893 86.5281C166.893 155.026 155.288 -1.30388 152.525 58.908C150.315 107.078 136.499 149.686 129.868 164.969C122.684 112.675 116.972 23.7752 113.435 86.5281C110.419 140.038 101.421 176.582 95.8298 189.321L90.9846 189.078C87.3866 165.968 37.3309 28.5982 36.4741 65C35.5899 102.563 39.9741 152.632 36.4741 169.389C22.8427 107.519 -3.64636 2.342 -0.551697 76.5849V147.515L-0.999939 169.389C-0.999939 169.389 0.737732 171.242 -0.551697 184.5L90.9846 189.078C91.0994 189.816 91.1669 190.437 91.184 190.932C91.3596 196.024 93.2248 195.256 95.8298 189.321L669.229 218L704.044 203.085L729.465 159.445Z" fill="#161D0A"/>
<path d="M582.458 158.445L621.96 61C627.489 90.6456 641.211 131.267 627.941 163.969C636.859 174.649 640.783 79.9997 640.783 79.9997C640.783 79.9997 683.59 152.921 700.178 178.331C716.766 203.742 745.126 40.7832 744.056 52.3837C742.985 63.9841 743.52 107.072 739.775 146.844C742.45 173.912 779.468 55.1375 779.468 69.5C779.468 83.8625 781.327 179.989 783.468 168.388C785.608 156.788 853.749 -38.5 831.036 106C842.483 81.6767 853.48 68.4383 852.144 98.2331C849.469 157.893 849.469 169.493 853.749 173.912C858.03 178.331 867.885 83.3515 884.473 106C901.061 128.649 896.693 183.855 900.974 173.912C905.254 163.969 909.934 36.9164 925.451 98.2331C940.969 159.55 958.092 118.12 963.978 118.12C969.864 118.12 962.908 149.556 963.978 159.5C965.048 169.443 994.665 33.0496 993.595 85.5278C992.525 138.006 993.595 169.493 993.595 173.912C993.595 178.331 1011.95 52.9361 1019.98 85.5278C1028.01 118.12 1018.37 168.338 1019.98 159.5C1021.58 150.661 1059.76 30 1059.76 30C1059.76 30 1042.43 196.691 1059.76 163.969C1081.98 122 1070.89 -42.6092 1087.48 74.5001C1092.49 109.874 1094.97 132.847 1096 147.562C1103.16 102.197 1120.08 3.07819 1115.41 57.9077C1109.52 126.958 1110.59 158.445 1110.59 168.388C1110.59 178.331 1126.65 -7.27583 1127.18 85.5278C1127.18 154.026 1138.42 -2.30421 1141.09 57.9077C1143.23 106.077 1148.99 128 1148.99 128C1155.94 75.7055 1170.49 23.4156 1170.49 79.9997C1170.49 98.9375 1193.84 167.385 1201.56 179.03L1203.99 178.866C1204.52 162.846 1247.42 22.5458 1248.49 69.5C1249.35 107.063 1230.49 159.5 1243.99 163.969C1257.19 102.1 1264.99 163.969 1264.99 163.969L1291.99 34.1544C1291.99 34.1544 1291.99 118.12 1314.49 159.5C1326.62 125.803 1342 79.9997 1342 79.9997C1342 79.9997 1369.58 146.844 1373.86 163.969C1382.78 120.145 1391.5 75.5846 1391.5 75.5846C1391.5 75.5846 1422.75 150.711 1424 163.969L1203.99 178.866C1203.9 181.402 1203.01 181.221 1201.56 179.03L640.783 217L607.072 202.085L582.458 158.445Z" fill="#161D0A"/>
<path d="M0.929537 174.913L0.929491 160.5L0.929689 119.12L0.929125 96L0.929077 86.5282C0.929077 86.5282 15.0003 23.5543 13.9301 35.1547C12.8599 46.7552 64.9326 174.913 64.9326 174.913L68.9328 51L95.9341 150C95.9341 150 83.627 4.52613 95.9341 67.5C105.78 117.879 124.798 135.557 129.436 145.5C129.436 145.5 149.577 44.7724 147.437 92.5C144.761 152.159 158.434 170.493 162.715 174.913C166.996 179.332 181.978 90.9474 198.566 113.596C215.154 136.244 230.137 184.856 234.417 174.913C238.698 164.969 229.602 52.2792 245.119 113.596C260.637 174.913 267.058 119.12 272.944 119.12C278.83 119.12 284.716 155.026 285.786 164.969C286.857 174.913 308.795 34.0499 307.725 86.5282C306.655 139.006 307.725 170.493 307.725 174.913C307.725 179.332 310.936 53.9364 318.962 86.5282C326.988 119.12 333.409 173.808 335.015 164.969C336.62 156.131 340.901 -61.5157 350.532 58.908C360.164 179.332 367.655 201.98 368.725 164.969C369.796 127.958 411.95 14 411.95 14C411.95 14 396.472 125.374 392.747 149.163C398.216 123.365 429.754 -4.19948 424.375 58.908C418.489 127.958 419.559 159.445 419.559 169.389C419.559 179.332 435.612 -6.27545 436.147 86.5282C436.147 155.026 447.384 -1.30385 450.059 58.908C452.2 107.078 465.577 149.686 471.998 164.969C478.954 112.675 493.723 23.7753 497.148 86.5282C500.159 141.711 504.759 178.85 507.409 190.445L509.488 190.334C510.897 171.533 550.134 25.7454 551.192 72.1657C552.048 109.729 562.068 133.244 565.457 150C578.656 88.1309 574.958 123.5 574.958 123.5L601.459 25C601.459 25 618.435 164.049 622.894 174.913C635.023 141.216 664.182 51.5908 668.462 67.5C672.743 83.4092 678.543 147.845 682.824 164.969C691.742 121.145 709.793 44.1037 710.649 86.5282C711.505 128.953 714.216 166.074 715.465 179.332L509.488 190.334C509.472 190.551 509.461 190.75 509.455 190.932C509.296 195.682 508.526 195.333 507.409 190.445L0.929491 217.5V193L0.929537 174.913Z" fill="#161D0A"/>
</svg>
