<svg width="58" height="58" viewBox="0 0 58 58" fill="none" xmlns="http://www.w3.org/2000/svg">
<path d="M30.3144 16.25L41.6644 27.59C41.8316 27.7578 42.0304 27.891 42.2491 27.9818C42.4679 28.0727 42.7025 28.1194 42.9394 28.1194C43.1763 28.1194 43.4109 28.0727 43.6297 27.9818C43.8485 27.891 44.0472 27.7578 44.2144 27.59L53.3444 18.46C53.6944 18.1112 53.9691 17.6943 54.1514 17.235C54.3338 16.7757 54.4199 16.2839 54.4044 15.79L54.1244 7.34001C54.0936 6.41836 53.7082 5.54417 53.0488 4.8996C52.3893 4.25503 51.5065 3.8898 50.5844 3.88001L41.8244 3.76001C41.3422 3.75407 40.8637 3.84482 40.4171 4.02687C39.9706 4.20893 39.565 4.47862 39.2244 4.82001L30.3244 13.71C29.9872 14.046 29.7969 14.5019 29.795 14.9779C29.7931 15.454 29.9799 15.9114 30.3144 16.25Z" fill="#A1A1A1" stroke="#161D0A" stroke-width="2" stroke-linecap="round" stroke-linejoin="round"/>
<path d="M5.26442 56.43L1.52442 52.7C1.18856 52.3626 1 51.906 1 51.43C1 50.954 1.18856 50.4973 1.52442 50.16L8.33442 43.35C8.67176 43.0141 9.1284 42.8256 9.60442 42.8256C10.0804 42.8256 10.5371 43.0141 10.8744 43.35L14.6044 47.08C14.9403 47.4173 15.1288 47.874 15.1288 48.35C15.1288 48.826 14.9403 49.2826 14.6044 49.62L7.79442 56.42C7.46012 56.7566 7.00588 56.9467 6.53149 56.9485C6.05711 56.9504 5.60138 56.7639 5.26442 56.43Z" stroke="#161D0A" stroke-width="2" stroke-linecap="round" stroke-linejoin="round"/>
<path d="M35.9944 21.92L12.7544 45.21" stroke="#161D0A" stroke-width="2" stroke-linecap="round" stroke-linejoin="round"/>
<path d="M43.4314 47.1508L47.1662 43.4186C47.502 43.083 47.9574 42.8946 48.4321 42.8947C48.9069 42.8949 49.3621 43.0837 49.6977 43.4195L56.4765 50.203C56.8139 50.5407 57.0034 50.9986 57.0032 51.476C57.0031 51.9534 56.8133 52.4111 56.4756 52.7486L52.7407 56.4808C52.4049 56.8164 51.9496 57.0048 51.4748 57.0046C51.0001 57.0045 50.5449 56.8157 50.2093 56.4799L43.4305 49.6964C43.0931 49.3587 42.9036 48.9008 42.9038 48.4234C42.9039 47.946 43.0937 47.4883 43.4314 47.1508Z" fill="#A6DF65" stroke="#161D0A" stroke-width="2" stroke-linecap="round" stroke-linejoin="round"/>
<path d="M22.2144 22.23L45.2844 45.29" stroke="#161D0A" stroke-width="2" stroke-linecap="round" stroke-linejoin="round"/>
<path d="M1.00442 14.15L9.08442 22.23C10.8263 23.9698 13.1875 24.947 15.6494 24.947C18.1113 24.947 20.4725 23.9698 22.2144 22.23C23.0753 21.3692 23.7581 20.3473 24.224 19.2226C24.6899 18.0978 24.9297 16.8924 24.9297 15.675C24.9297 14.4576 24.6899 13.2522 24.224 12.1274C23.7581 11.0027 23.0753 9.9808 22.2144 9.12L14.1244 1" stroke="#161D0A" stroke-width="2" stroke-linecap="round" stroke-linejoin="round"/>
<path d="M22.2144 22.23L7.56442 7.59" stroke="#161D0A" stroke-width="2" stroke-linecap="round" stroke-linejoin="round"/>
</svg>
