<svg width="45" height="63" viewBox="0 0 45 63" fill="none" xmlns="http://www.w3.org/2000/svg">
<path d="M39.8964 35.6386H8.71908C8.55795 35.6284 8.39642 35.651 8.24428 35.705C8.09214 35.7591 7.95254 35.8434 7.83395 35.953C7.71535 36.0625 7.62021 36.195 7.5543 36.3424C7.48839 36.4898 7.45307 36.649 7.45049 36.8104V39.9389C7.45614 40.2535 7.58584 40.5532 7.81134 40.7727C8.03685 40.9921 8.33992 41.1136 8.65458 41.1107H39.8319C40.1466 41.1136 40.4497 40.9921 40.6752 40.7727C40.9007 40.5532 41.0304 40.2535 41.036 39.9389V36.8104C41.0309 36.5068 40.9101 36.2165 40.6984 35.9988C40.4866 35.781 40.1998 35.6522 39.8964 35.6386Z" fill="#161D0A" stroke="#A6DF65" stroke-width="2" stroke-linecap="round" stroke-linejoin="round"/>
<path d="M9.90167 41.1107L13.1269 59.2688C13.2343 59.8283 13.5383 60.3309 13.9839 60.6858C14.4295 61.0407 14.9873 61.2245 15.5566 61.204H33.0374C33.5958 61.209 34.1382 61.0182 34.5703 60.6646C35.0025 60.311 35.297 59.8171 35.4026 59.2688L38.6816 41.1107" fill="#161D0A"/>
<path d="M9.90167 41.1107L13.1269 59.2688C13.2343 59.8283 13.5383 60.3309 13.9839 60.6858C14.4295 61.0407 14.9873 61.2245 15.5566 61.204H33.0374C33.5958 61.209 34.1382 61.0182 34.5703 60.6646C35.0025 60.311 35.297 59.8171 35.4026 59.2688L38.6816 41.1107" stroke="#A6DF65" stroke-width="2" stroke-linecap="round" stroke-linejoin="round"/>
<path d="M9.25662 17.2547C9.25662 17.2547 11.9336 19.6736 14.8685 25.6188C17.8035 31.564 25.0818 35.6386 25.0818 35.6386C25.0818 35.6386 21.8566 25.5865 28.3608 17.846" stroke="#161D0A" stroke-width="2" stroke-linecap="round" stroke-linejoin="round"/>
<path d="M18.2013 30.2417C18.2013 30.2417 14.6965 32.8326 9.60065 29.8224C8.66837 29.2332 7.87698 28.4463 7.28248 27.5174C6.68799 26.5885 6.30492 25.5403 6.16039 24.447C5.43021 19.564 3.67127 14.8919 1 10.7397C4.29618 10.6496 7.57952 11.1859 10.6757 12.32C13.9212 13.5262 16.5742 15.9412 18.0792 19.0593C19.5842 22.1775 19.8244 25.757 18.7496 29.0483C18.6851 29.3708 18.3626 29.8869 18.2013 30.2417Z" stroke="#161D0A" stroke-width="2" stroke-linecap="round" stroke-linejoin="round"/>
<path d="M37.9183 3.20337L37.5528 2.37556C37.391 2.04651 37.1577 1.75777 36.87 1.53041C36.5824 1.30305 36.2475 1.14282 35.89 1.06143C35.5325 0.980029 35.1613 0.979522 34.8036 1.05994C34.4458 1.14036 34.1105 1.29967 33.8222 1.52624L33.5857 1.71976C33.2313 1.99754 32.8083 2.1742 32.3616 2.23098C31.9149 2.28777 31.4612 2.22256 31.0485 2.04228L30.7798 1.92402C30.444 1.76655 30.0765 1.6884 29.7056 1.69562C29.3348 1.70283 28.9706 1.79523 28.6412 1.96565C28.3118 2.13607 28.026 2.37996 27.8059 2.67846C27.5858 2.97697 27.4372 3.32209 27.3718 3.68715L27.1997 4.76224C27.1381 5.12278 26.9933 5.46401 26.7768 5.75886C26.5604 6.05371 26.2782 6.29406 25.9527 6.46086L25.1141 6.8909C24.8095 7.04329 24.5425 7.26141 24.3324 7.52953C24.1223 7.79765 23.9744 8.10906 23.8993 8.4413C23.8242 8.77353 23.8239 9.11829 23.8982 9.45069C23.9726 9.78309 24.1198 10.0948 24.3293 10.3634L24.7593 10.9117C24.9969 11.21 25.1559 11.5632 25.2216 11.9388C25.2873 12.3145 25.2578 12.7006 25.1356 13.0619L24.7163 14.3412C24.6196 14.6526 24.5893 14.9809 24.6272 15.3048C24.6652 15.6286 24.7707 15.941 24.9368 16.2216C25.103 16.5022 25.3261 16.7448 25.5918 16.9339C25.8575 17.123 26.1599 17.2542 26.4794 17.3192L27.662 17.588C28.2519 17.7128 28.7713 18.0591 29.1134 18.5555L30.1885 20.1036C30.3887 20.3824 30.6447 20.6164 30.9403 20.7907C31.2359 20.9651 31.5645 21.0761 31.9053 21.1165C32.2461 21.157 32.5915 21.126 32.9197 21.0257C33.2479 20.9253 33.5516 20.7578 33.8115 20.5337L34.0265 20.3402C34.3885 20.0249 34.8348 19.8223 35.3104 19.7574C35.786 19.6924 36.2702 19.768 36.7035 19.9746L36.854 20.0499C37.1984 20.2161 37.5773 20.2986 37.9597 20.2908C38.3421 20.2829 38.7172 20.1849 39.0546 20.0047C39.392 19.8245 39.682 19.5672 39.9012 19.2537C40.1203 18.9403 40.2624 18.5795 40.3157 18.2008L40.4125 17.3084C40.4578 16.902 40.6087 16.5146 40.8501 16.1845C41.0915 15.8545 41.415 15.5933 41.7886 15.427L42.6057 14.9755C42.9364 14.8337 43.2294 14.6163 43.4609 14.3408C43.6924 14.0652 43.856 13.7392 43.9386 13.3889C44.0212 13.0387 44.0205 12.6739 43.9365 12.3239C43.8525 11.974 43.6876 11.6486 43.455 11.374L43.2507 11.1375C43.0022 10.8451 42.8315 10.4948 42.7544 10.1189C42.6774 9.74307 42.6965 9.35384 42.8099 8.98731L43.1862 7.80472C43.2788 7.48706 43.3028 7.15333 43.2565 6.8257C43.2103 6.49807 43.0949 6.18402 42.9179 5.90441C42.741 5.6248 42.5067 5.38602 42.2304 5.20392C41.9541 5.02183 41.6423 4.90059 41.3156 4.84824L39.7029 4.54722C39.3187 4.48492 38.9555 4.33001 38.6445 4.09587C38.3336 3.86173 38.0843 3.55541 37.9183 3.20337Z" fill="#9EC8FF" stroke="#161D0A" stroke-width="2" stroke-linecap="round" stroke-linejoin="round"/>
<path d="M33.919 14.2122C35.724 14.2122 37.1872 12.7971 37.1872 11.0515C37.1872 9.30583 35.724 7.89072 33.919 7.89072C32.114 7.89072 30.6507 9.30583 30.6507 11.0515C30.6507 12.7971 32.114 14.2122 33.919 14.2122Z" stroke="#161D0A" stroke-width="2" stroke-linecap="round" stroke-linejoin="round"/>
</svg>
