<svg width="73" height="46" viewBox="0 0 73 46" fill="none" xmlns="http://www.w3.org/2000/svg">
<path d="M61.87 1H33.84V5.28H61.87V1Z" fill="#161D0A" stroke="#161D0A" stroke-width="2" stroke-linecap="round" stroke-linejoin="round"/>
<path d="M61.87 40.72H33.84V45H61.87V40.72Z" fill="#161D0A" stroke="#161D0A" stroke-width="2" stroke-linecap="round" stroke-linejoin="round"/>
<path d="M36.93 5.28003V40.72" stroke="#161D0A" stroke-width="2" stroke-linecap="round" stroke-linejoin="round"/>
<path d="M58.78 5.28003V40.72" stroke="#161D0A" stroke-width="2" stroke-linecap="round" stroke-linejoin="round"/>
<path d="M36.93 30.53L21.63 20.25L16 20.72L21.07 8.02002L24.48 14.28L36.93 20.98" stroke="#161D0A" stroke-width="2" stroke-linecap="round" stroke-linejoin="round"/>
<path d="M58.78 12.9299C62.16 14.0199 67.88 16.5999 67.88 21.4199C67.88 26.2399 62.35 30.5199 58.78 32.7299" stroke="#161D0A" stroke-width="2" stroke-linecap="round" stroke-linejoin="round"/>
<path d="M58.78 9.21997C62.56 10.22 72 13.56 72 21.42C72 29.28 62 35.25 58.78 37" stroke="#161D0A" stroke-width="2" stroke-linecap="round" stroke-linejoin="round"/>
<circle cx="14.5" cy="7.5" r="1.5" fill="#161D0A"/>
<circle cx="11.5" cy="14.5" r="1.5" fill="#161D0A"/>
<circle cx="8.5" cy="9.5" r="1.5" fill="#161D0A"/>
<circle cx="3.5" cy="12.5" r="1.5" fill="#161D0A"/>
<circle cx="1.5" cy="4.5" r="1.5" fill="#161D0A"/>
<circle cx="7.5" cy="4.5" r="1.5" fill="#161D0A"/>
</svg>
